<svg xmlns="http://www.w3.org/2000/svg" version="1.1" xmlns:xlink="http://www.w3.org/1999/xlink" xmlns:svgjs="http://svgjs.dev/svgjs" width="2000" height="1500" viewBox="0 0 2000 1500"><rect width="2000" height="1500" fill="#000000"></rect><g transform="matrix(0.75,0,0,0.75,249.090909090909,282.7536437246963)"><svg viewBox="0 0 396 247" data-background-color="#000000" preserveAspectRatio="xMidYMid meet" height="1247" width="2000" xmlns="http://www.w3.org/2000/svg" xmlns:xlink="http://www.w3.org/1999/xlink"><g id="tight-bounds" transform="matrix(1,0,0,1,0.2400000000000091,-0.09999999999999432)"><svg viewBox="0 0 395.52 247.2" height="247.2" width="395.52"><rect width="395.52" height="247.2" fill="url(#41428928-ee91-4bbd-ad26-68b945563b0c)" mask="url(#5dcbc0bf-db1f-4533-a50b-2605134e02c6)" data-fill-palette-color="tertiary"></rect><g><svg></svg></g><g><svg viewBox="0 0 395.52 247.2" height="247.2" width="395.52"><g transform="matrix(1,0,0,1,75.54432,93.10127417806451)"><svg viewBox="0 0 244.43135999999998 60.99745164387097" height="60.99745164387097" width="244.43135999999998"><g><svg viewBox="0 0 244.43135999999998 60.99745164387097" height="60.99745164387097" width="244.43135999999998"><g><svg viewBox="0 0 244.43135999999998 60.99745164387097" height="60.99745164387097" width="244.43135999999998"><g><svg viewBox="0 0 244.43135999999998 60.99745164387097" height="60.99745164387097" width="244.43135999999998"><g id="textblocktransform"><svg viewBox="0 0 244.43135999999998 60.99745164387097" height="60.99745164387097" width="244.43135999999998" id="textblock"><g><svg viewBox="0 0 244.43135999999998 60.99745164387097" height="60.99745164387097" width="244.43135999999998"><g transform="matrix(1,0,0,1,0,0)"><svg width="244.43135999999998" viewBox="4.5 -36.75 193.73 48.35" height="60.99745164387097" data-palette-color="url(#6ab82d4e-7622-48e7-9ed8-845ed00364ba)"></svg></g></svg></g></svg></g></svg></g></svg></g></svg></g></svg></g><g><path d="M0 123.6c0-68.262 55.338-123.6 123.6-123.6 55.116 0 101.806 36.075 117.745 85.901h-2.891c-15.838-48.283-61.274-83.151-114.854-83.151-66.743 0-120.85 54.106-120.85 120.85 0 66.743 54.106 120.85 120.85 120.85 53.58 0 99.015-34.868 114.854-83.151h2.891c-15.94 49.826-62.63 85.901-117.745 85.901-68.262 0-123.6-55.338-123.6-123.6z" fill="url(#41428928-ee91-4bbd-ad26-68b945563b0c)" stroke="transparent" data-fill-palette-color="tertiary"></path></g></svg></g><defs></defs><mask id="fe07ad20-d1a8-4438-a2db-2190d7ebb93c"><g id="SvgjsG7951"><svg viewBox="0 0 395.52 247.2" height="247.2" width="395.52"><g><svg></svg></g><g><svg viewBox="0 0 395.52 247.2" height="247.2" width="395.52"><g transform="matrix(1,0,0,1,75.54432,93.10127417806451)"><svg viewBox="0 0 244.43135999999998 60.99745164387097" height="60.99745164387097" width="244.43135999999998"><g><svg viewBox="0 0 244.43135999999998 60.99745164387097" height="60.99745164387097" width="244.43135999999998"><g><svg viewBox="0 0 244.43135999999998 60.99745164387097" height="60.99745164387097" width="244.43135999999998"><g><svg viewBox="0 0 244.43135999999998 60.99745164387097" height="60.99745164387097" width="244.43135999999998"><g id="SvgjsG7950"><svg viewBox="0 0 244.43135999999998 60.99745164387097" height="60.99745164387097" width="244.43135999999998" id="SvgjsSvg7949"><g><svg viewBox="0 0 244.43135999999998 60.99745164387097" height="60.99745164387097" width="244.43135999999998"><g transform="matrix(1,0,0,1,0,0)"><svg width="244.43135999999998" viewBox="4.5 -36.75 193.73 48.35" height="60.99745164387097" data-palette-color="url(#6ab82d4e-7622-48e7-9ed8-845ed00364ba)"><path d="M25.3 0L4.5 0 4.5-35 9.25-35 9.25-4.25 25.3-4.25 25.3 0ZM39.5 0.6L39.5 0.6Q36.25 0.6 33.6-1.05 30.95-2.7 29.37-5.73 27.8-8.75 27.8-12.85L27.8-12.85Q27.8-16.75 29.37-19.85 30.95-22.95 33.72-24.78 36.5-26.6 40.1-26.6L40.1-26.6Q42.35-26.6 44.17-25.83 46-25.05 47.35-23.9L47.35-23.9 47.35-26 51.45-26 51.45-6.3Q51.45-4.4 52.37-3.83 53.3-3.25 54.4-3.25L54.4-3.25 53.45 0.25Q48.65 0.25 47.65-3.65L47.65-3.65Q46.5-2.05 44.52-0.73 42.55 0.6 39.5 0.6ZM40.5-3.4L40.5-3.4Q42.4-3.4 44.1-4.33 45.8-5.25 46.95-6.65L46.95-6.65 46.95-20.6Q45.6-21.55 43.97-22.13 42.35-22.7 40.55-22.7L40.55-22.7Q38.15-22.7 36.32-21.48 34.5-20.25 33.45-18.07 32.4-15.9 32.4-13L32.4-13Q32.4-10.2 33.45-8.03 34.5-5.85 36.35-4.63 38.2-3.4 40.5-3.4ZM60.05 11.6L60.05 11.6Q58.55 11.6 57.42 11.3 56.3 11 55.65 10.6L55.65 10.6 56.65 6.85Q57.25 7.2 58.15 7.45 59.05 7.7 60.15 7.7L60.15 7.7Q62.25 7.7 63.9 6.35 65.55 5 67.05 1.05L67.05 1.05 68.2-1.95 65.8-1.95 55.65-24.8 59.65-26.6 69.34-4.95 76.9-26.4 81.05-24.8 71.5 1.3Q70.05 5.3 68.34 7.55 66.65 9.8 64.59 10.7 62.55 11.6 60.05 11.6ZM90.04 0L85.54 0 85.54-26 90.04-26 90.04 0ZM87.79-30.45L87.79-30.45Q86.49-30.45 85.57-31.4 84.64-32.35 84.64-33.6L84.64-33.6Q84.64-35.05 85.49-35.9 86.34-36.75 87.79-36.75L87.79-36.75Q89.09-36.75 90.02-35.83 90.94-34.9 90.94-33.6L90.94-33.6Q90.94-32.2 90.09-31.33 89.24-30.45 87.79-30.45ZM102.54 0L98.04 0 98.04-26 102.39-26 102.39-21.65Q103.79-23.75 105.97-25.18 108.14-26.6 111.14-26.6L111.14-26.6Q115.54-26.6 117.72-23.95 119.89-21.3 119.89-16.95L119.89-16.95 119.89 0 115.39 0 115.39-16.45Q115.39-19.25 114.07-20.95 112.74-22.65 110.39-22.65L110.39-22.65Q108.09-22.65 106.04-21.03 103.99-19.4 102.54-17.2L102.54-17.2 102.54 0ZM136.74 0.6L136.74 0.6Q132.99 0.6 130.81-1.88 128.64-4.35 128.64-8.95L128.64-8.95 128.64-21.15 124.14-21.15 124.14-25.05 128.74-25.05 129.69-33.25 133.14-33.25 133.14-25.05 140.34-25.05 140.34-21.15 133.14-21.15 133.14-8.6Q133.14-5.7 134.36-4.55 135.59-3.4 137.29-3.4L137.29-3.4Q138.54-3.4 139.66-3.8 140.79-4.2 141.74-4.75L141.74-4.75 142.99-1.15Q141.99-0.55 140.29 0.03 138.59 0.6 136.74 0.6ZM157.44 0.6L157.44 0.6Q153.74 0.6 150.79-1.13 147.84-2.85 146.16-5.93 144.49-9 144.49-13L144.49-13Q144.49-17.2 146.19-20.25 147.89-23.3 150.84-24.95 153.79-26.6 157.44-26.6L157.44-26.6Q161.09-26.6 164.01-24.95 166.94-23.3 168.66-20.28 170.39-17.25 170.39-13.1L170.39-13.1Q170.39-8.95 168.69-5.88 166.99-2.8 164.06-1.1 161.14 0.6 157.44 0.6ZM157.44-3.4L157.44-3.4Q161.39-3.4 163.59-6.08 165.79-8.75 165.79-13L165.79-13Q165.79-15.6 164.69-17.78 163.59-19.95 161.71-21.28 159.84-22.6 157.44-22.6L157.44-22.6Q153.49-22.6 151.29-20 149.09-17.4 149.09-13.1L149.09-13.1Q149.09-10.5 150.19-8.28 151.29-6.05 153.16-4.73 155.04-3.4 157.44-3.4ZM180.88 0L176.38 0 176.38-26 180.73-26 180.73-21.65Q182.13-23.75 184.31-25.18 186.48-26.6 189.48-26.6L189.48-26.6Q193.88-26.6 196.06-23.95 198.23-21.3 198.23-16.95L198.23-16.95 198.23 0 193.73 0 193.73-16.45Q193.73-19.25 192.41-20.95 191.08-22.65 188.73-22.65L188.73-22.65Q186.43-22.65 184.38-21.03 182.33-19.4 180.88-17.2L180.88-17.2 180.88 0Z" opacity="1" transform="matrix(1,0,0,1,0,0)" fill="white" class="wordmark-text-0" id="SvgjsPath7948"></path></svg></g></svg></g></svg></g></svg></g></svg></g></svg></g></svg></g><g><path d="M0 123.6c0-68.262 55.338-123.6 123.6-123.6 55.116 0 101.806 36.075 117.745 85.901h-2.891c-15.838-48.283-61.274-83.151-114.854-83.151-66.743 0-120.85 54.106-120.85 120.85 0 66.743 54.106 120.85 120.85 120.85 53.58 0 99.015-34.868 114.854-83.151h2.891c-15.94 49.826-62.63 85.901-117.745 85.901-68.262 0-123.6-55.338-123.6-123.6z" fill="black" stroke="transparent"></path></g></svg></g><defs><mask></mask></defs></svg><rect width="395.52" height="247.2" fill="black" stroke="none" visibility="hidden"></rect></g></mask><linearGradient x1="0" x2="1" y1="0.548" y2="0.55" id="6ab82d4e-7622-48e7-9ed8-845ed00364ba"><stop stop-color="#ff6cab" offset="0"></stop><stop stop-color="#7366ff" offset="1"></stop></linearGradient><rect width="395.52" height="247.2" fill="url(#6ab82d4e-7622-48e7-9ed8-845ed00364ba)" mask="url(#fe07ad20-d1a8-4438-a2db-2190d7ebb93c)" data-fill-palette-color="primary"></rect><mask id="5dcbc0bf-db1f-4533-a50b-2605134e02c6"><g id="SvgjsG7974"><svg viewBox="0 0 395.52 247.2" height="247.2" width="395.52"><g><svg></svg></g><g><svg viewBox="0 0 395.52 247.2" height="247.2" width="395.52"><g transform="matrix(1,0,0,1,75.54432,93.10127417806451)"><svg viewBox="0 0 244.43135999999998 60.99745164387097" height="60.99745164387097" width="244.43135999999998"><g><svg viewBox="0 0 244.43135999999998 60.99745164387097" height="60.99745164387097" width="244.43135999999998"><g><svg viewBox="0 0 244.43135999999998 60.99745164387097" height="60.99745164387097" width="244.43135999999998"><g><svg viewBox="0 0 244.43135999999998 60.99745164387097" height="60.99745164387097" width="244.43135999999998"><g id="SvgjsG7973"><svg viewBox="0 0 244.43135999999998 60.99745164387097" height="60.99745164387097" width="244.43135999999998" id="SvgjsSvg7972"><g><svg viewBox="0 0 244.43135999999998 60.99745164387097" height="60.99745164387097" width="244.43135999999998"><g transform="matrix(1,0,0,1,0,0)"><svg width="244.43135999999998" viewBox="4.5 -36.75 193.73 48.35" height="60.99745164387097" data-palette-color="url(#6ab82d4e-7622-48e7-9ed8-845ed00364ba)"></svg></g></svg></g></svg></g></svg></g></svg></g></svg></g></svg></g><g><path d="M0 123.6c0-68.262 55.338-123.6 123.6-123.6 55.116 0 101.806 36.075 117.745 85.901h-2.891c-15.838-48.283-61.274-83.151-114.854-83.151-66.743 0-120.85 54.106-120.85 120.85 0 66.743 54.106 120.85 120.85 120.85 53.58 0 99.015-34.868 114.854-83.151h2.891c-15.94 49.826-62.63 85.901-117.745 85.901-68.262 0-123.6-55.338-123.6-123.6z" fill="white" stroke="transparent"></path></g></svg></g><defs><mask></mask></defs><mask><g id="SvgjsG7971"><svg viewBox="0 0 395.52 247.2" height="247.2" width="395.52"><g><svg></svg></g><g><svg viewBox="0 0 395.52 247.2" height="247.2" width="395.52"><g transform="matrix(1,0,0,1,75.54432,93.10127417806451)"><svg viewBox="0 0 244.43135999999998 60.99745164387097" height="60.99745164387097" width="244.43135999999998"><g><svg viewBox="0 0 244.43135999999998 60.99745164387097" height="60.99745164387097" width="244.43135999999998"><g><svg viewBox="0 0 244.43135999999998 60.99745164387097" height="60.99745164387097" width="244.43135999999998"><g><svg viewBox="0 0 244.43135999999998 60.99745164387097" height="60.99745164387097" width="244.43135999999998"><g id="SvgjsG7970"><svg viewBox="0 0 244.43135999999998 60.99745164387097" height="60.99745164387097" width="244.43135999999998" id="SvgjsSvg7969"><g><svg viewBox="0 0 244.43135999999998 60.99745164387097" height="60.99745164387097" width="244.43135999999998"><g transform="matrix(1,0,0,1,0,0)"><svg width="244.43135999999998" viewBox="4.5 -36.75 193.73 48.35" height="60.99745164387097" data-palette-color="url(#6ab82d4e-7622-48e7-9ed8-845ed00364ba)"><path d="M25.3 0L4.5 0 4.5-35 9.25-35 9.25-4.25 25.3-4.25 25.3 0ZM39.5 0.6L39.5 0.6Q36.25 0.6 33.6-1.05 30.95-2.7 29.37-5.73 27.8-8.75 27.8-12.85L27.8-12.85Q27.8-16.75 29.37-19.85 30.95-22.95 33.72-24.78 36.5-26.6 40.1-26.6L40.1-26.6Q42.35-26.6 44.17-25.83 46-25.05 47.35-23.9L47.35-23.9 47.35-26 51.45-26 51.45-6.3Q51.45-4.4 52.37-3.83 53.3-3.25 54.4-3.25L54.4-3.25 53.45 0.25Q48.65 0.25 47.65-3.65L47.65-3.65Q46.5-2.05 44.52-0.73 42.55 0.6 39.5 0.6ZM40.5-3.4L40.5-3.4Q42.4-3.4 44.1-4.33 45.8-5.25 46.95-6.65L46.95-6.65 46.95-20.6Q45.6-21.55 43.97-22.13 42.35-22.7 40.55-22.7L40.55-22.7Q38.15-22.7 36.32-21.48 34.5-20.25 33.45-18.07 32.4-15.9 32.4-13L32.4-13Q32.4-10.2 33.45-8.03 34.5-5.85 36.35-4.63 38.2-3.4 40.5-3.4ZM60.05 11.6L60.05 11.6Q58.55 11.6 57.42 11.3 56.3 11 55.65 10.6L55.65 10.6 56.65 6.85Q57.25 7.2 58.15 7.45 59.05 7.7 60.15 7.7L60.15 7.7Q62.25 7.7 63.9 6.35 65.55 5 67.05 1.05L67.05 1.05 68.2-1.95 65.8-1.95 55.65-24.8 59.65-26.6 69.34-4.95 76.9-26.4 81.05-24.8 71.5 1.3Q70.05 5.3 68.34 7.55 66.65 9.8 64.59 10.7 62.55 11.6 60.05 11.6ZM90.04 0L85.54 0 85.54-26 90.04-26 90.04 0ZM87.79-30.45L87.79-30.45Q86.49-30.45 85.57-31.4 84.64-32.35 84.64-33.6L84.64-33.6Q84.64-35.05 85.49-35.9 86.34-36.75 87.79-36.75L87.79-36.75Q89.09-36.75 90.02-35.83 90.94-34.9 90.94-33.6L90.94-33.6Q90.94-32.2 90.09-31.33 89.24-30.45 87.79-30.45ZM102.54 0L98.04 0 98.04-26 102.39-26 102.39-21.65Q103.79-23.75 105.97-25.18 108.14-26.6 111.14-26.6L111.14-26.6Q115.54-26.6 117.72-23.95 119.89-21.3 119.89-16.95L119.89-16.95 119.89 0 115.39 0 115.39-16.45Q115.39-19.25 114.07-20.95 112.74-22.65 110.39-22.65L110.39-22.65Q108.09-22.65 106.04-21.03 103.99-19.4 102.54-17.2L102.54-17.2 102.54 0ZM136.74 0.6L136.74 0.6Q132.99 0.6 130.81-1.88 128.64-4.35 128.64-8.95L128.64-8.95 128.64-21.15 124.14-21.15 124.14-25.05 128.74-25.05 129.69-33.25 133.14-33.25 133.14-25.05 140.34-25.05 140.34-21.15 133.14-21.15 133.14-8.6Q133.14-5.7 134.36-4.55 135.59-3.4 137.29-3.4L137.29-3.4Q138.54-3.4 139.66-3.8 140.79-4.2 141.74-4.75L141.74-4.75 142.99-1.15Q141.99-0.55 140.29 0.03 138.59 0.6 136.74 0.6ZM157.44 0.6L157.44 0.6Q153.74 0.6 150.79-1.13 147.84-2.85 146.16-5.93 144.49-9 144.49-13L144.49-13Q144.49-17.2 146.19-20.25 147.89-23.3 150.84-24.95 153.79-26.6 157.44-26.6L157.44-26.6Q161.09-26.6 164.01-24.95 166.94-23.3 168.66-20.28 170.39-17.25 170.39-13.1L170.39-13.1Q170.39-8.95 168.69-5.88 166.99-2.8 164.06-1.1 161.14 0.6 157.44 0.6ZM157.44-3.4L157.44-3.4Q161.39-3.4 163.59-6.08 165.79-8.75 165.79-13L165.79-13Q165.79-15.6 164.69-17.78 163.59-19.95 161.71-21.28 159.84-22.6 157.44-22.6L157.44-22.6Q153.49-22.6 151.29-20 149.09-17.4 149.09-13.1L149.09-13.1Q149.09-10.5 150.19-8.28 151.29-6.05 153.16-4.73 155.04-3.4 157.44-3.4ZM180.88 0L176.38 0 176.38-26 180.73-26 180.73-21.65Q182.13-23.75 184.31-25.18 186.48-26.6 189.48-26.6L189.48-26.6Q193.88-26.6 196.06-23.95 198.23-21.3 198.23-16.95L198.23-16.95 198.23 0 193.73 0 193.73-16.45Q193.73-19.25 192.41-20.95 191.08-22.65 188.73-22.65L188.73-22.65Q186.43-22.65 184.38-21.03 182.33-19.4 180.88-17.2L180.88-17.2 180.88 0Z" opacity="1" transform="matrix(1,0,0,1,0,0)" fill="black" class="wordmark-text-0" id="SvgjsPath7968"></path></svg></g></svg></g></svg></g></svg></g></svg></g></svg></g></svg></g><g><path d="M0 123.6c0-68.262 55.338-123.6 123.6-123.6 55.116 0 101.806 36.075 117.745 85.901h-2.891c-15.838-48.283-61.274-83.151-114.854-83.151-66.743 0-120.85 54.106-120.85 120.85 0 66.743 54.106 120.85 120.85 120.85 53.58 0 99.015-34.868 114.854-83.151h2.891c-15.94 49.826-62.63 85.901-117.745 85.901-68.262 0-123.6-55.338-123.6-123.6z" fill="black" stroke="transparent"></path></g></svg></g><defs><mask></mask></defs></svg><rect width="395.52" height="247.2" fill="black" stroke="none" visibility="hidden"></rect></g></mask></svg><rect width="395.52" height="247.2" fill="black" stroke="none" visibility="hidden"></rect></g></mask><linearGradient x1="0" x2="1" y1="0.548" y2="0.55" id="41428928-ee91-4bbd-ad26-68b945563b0c"><stop stop-color="#ff6cab" offset="0"></stop><stop stop-color="#7366ff" offset="1"></stop></linearGradient></svg><rect width="395.52" height="247.2" fill="none" stroke="none" visibility="hidden"></rect></g></svg></g></svg>